#!OML:ASF H:\Terrain\Patient Classification 1\Walking\liu\liu.ASF
:FULLY-SPECIFIED
:DEGREES
17
root 7.604560 15.899000 -34.614498 7.093010 -4.172460 -5.229530
lowerback -6.812377 1.260578 1.766039
upperback -1.449547 1.482580 3.369080
thorax 2.284238 0.743064 2.596715
lowerneck -21.531841 -5.473314 -13.435290
upperneck 17.180681 -7.098091 16.730669
head 9.963074 -2.457994 7.080106
rclavicle 0.000000 0.000000
rhumerus -45.428902 21.335159 -96.842133
rradius 68.923691
rwrist -38.269218
rhand -33.652409 -35.687191
rfingers 7.837522
rthumb -4.279264 -68.625809
lclavicle 0.000000 0.000000
lhumerus -43.608841 -8.453215 98.938293
lradius 31.551302
lwrist 7.427563
lhand -8.044113 -25.876072
lfingers 7.837522
lthumb 20.426891 6.170879
rfemur 5.554527 7.059536 34.246742
rtibia 12.807410
rfoot -21.543060 -1.504767
rtoes -6.437057
lfemur -44.134422 -0.336155 -8.796997
ltibia 20.939711
lfoot -15.757831 16.544771
ltoes -14.236530
18
root 7.625190 15.892500 -34.473099 7.234270 -4.397650 -5.613660
lowerback -7.095319 1.288397 2.232384
upperback -1.425039 1.472284 3.522178
thorax 2.474670 0.739964 2.500267
lowerneck -21.579031 -5.447992 -13.466420
upperneck 17.109840 -7.011983 16.600210
head 9.929294 -2.431495 7.047689
rclavicle -0.000000 0.000000
rhumerus -45.609303 21.710150 -97.253860
rradius 69.098373
rwrist -38.601311
rhand -34.186131 -32.609612
rfingers 7.837522
rthumb -4.794625 -65.538223
lclavicle -0.000000 0.000000
lhumerus -43.798920 -8.642788 99.156090
lradius 31.420290
lwrist 7.381264
lhand -8.248724 -26.337740
lfingers 7.837522
lthumb 20.230101 5.727997
rfemur 6.601386 6.914578 34.529881
rtibia 11.600381
rfoot -20.957861 -1.203752
rtoes -7.339772
lfemur -44.453423 -1.251217 -7.551126
ltibia 20.678350
lfoot -16.878180 17.693390
ltoes -11.635251
19
root 7.636870 15.894500 -34.329399 7.121920 -5.051900 -6.093010
lowerback -7.014722 1.555686 2.990053
upperback -1.350239 1.780581 3.382819
thorax 2.524346 0.898580 1.956163
lowerneck -21.979650 -5.378098 -12.971531
upperneck 17.562380 -7.027966 16.402210
head 10.133651 -2.407119 6.902534
rclavicle 0.000000 -0.000000
rhumerus -45.725021 21.335930 -97.958305
rradius 69.011360
rwrist -38.400890
rhand -34.566620 -32.172913
rfingers 7.837522
rthumb -5.162047 -65.093712
lclavicle 0.000000 -0.000000
lhumerus -44.229683 -9.557900 99.156975
lradius 31.732912
lwrist 7.723540
lhand -8.382770 -25.625820
lfingers 7.837522
lthumb 20.101181 6.451984
rfemur 7.995350 7.388282 34.905972
rtibia 10.448328
rfoot -20.465611 -1.061739
rtoes -7.518368
lfemur -44.290291 -1.813174 -6.248220
ltibia 20.559002
lfoot -17.633440 18.958941
ltoes -11.619631
20
root 7.619730 15.899100 -34.206501 8.568660 -6.934490 -6.864590
lowerback -8.215229 2.337500 3.868953
upperback -1.851619 2.718925 3.101890
thorax 2.713876 1.369467 1.290630
lowerneck -22.055111 -5.222536 -12.160830
upperneck 17.838699 -7.037525 16.213120
head 10.209321 -2.372326 6.700034
rclavicle -0.000000 -0.000000
rhumerus -46.041382 20.864470 -99.031685
rradius 69.012901
rwrist -38.193100
rhand -33.907940 -35.145000
rfingers 7.837522
rthumb -4.526027 -68.079002
lclavicle -0.000000 -0.000000
lhumerus -44.855362 -10.467963 98.876366
lradius 32.121979
lwrist 7.926941
lhand -8.527673 -24.783661
lfingers 7.837522
lthumb 19.961700 7.307102
rfemur 7.738522 9.555007 35.294491
rtibia 8.870950
rfoot -19.023069 -1.112947
rtoes -8.058699
lfemur -45.389961 -0.531399 -4.668466
ltibia 20.432610
lfoot -18.056940 20.017691
ltoes -12.546711
21
root 7.641240 15.887300 -34.059898 8.647910 -7.060550 -6.848300
lowerback -8.423173 2.260632 4.090625
upperback -1.894827 2.591853 2.974290
thorax 2.798092 1.307702 1.030037
lowerneck -21.659222 -5.100271 -12.123210
upperneck 17.518381 -6.901587 16.320261
head 10.011628 -2.315478 6.741394
rclavicle -0.000000 0.000000
rhumerus -46.295040 21.097672 -99.650215
rradius 69.065811
rwrist -37.997410
rhand -32.956551 -37.880920
rfingers 7.837522
rthumb -3.607208 -70.830978
lclavicle -0.000000 0.000000
lhumerus -45.338039 -10.548109 98.838417
lradius 32.203049
lwrist 7.667297
lhand -8.925972 -24.160511
lfingers 7.837522
lthumb 19.578459 7.965540
rfemur 8.922409 9.451310 35.147419
rtibia 7.485555
rfoot -17.945841 -1.160896
rtoes -8.318255
lfemur -45.707199 -0.687027 -4.568080
ltibia 20.571209
lfoot -18.441940 20.035070
ltoes -13.654850
22
root 7.702660 15.860100 -33.891300 7.430590 -5.453020 -6.480790
lowerback -7.699923 1.536513 4.299262
upperback -1.425523 1.639495 2.885938
thorax 2.876456 0.840283 0.716493
lowerneck -21.779671 -5.139266 -12.375000
upperneck 17.441490 -6.922564 16.599440
head 10.030602 -2.309868 6.882436
rclavicle -0.000000 -0.000000
rhumerus -46.303730 21.253210 -99.883850
rradius 68.982651
rwrist -37.661140
rhand -32.840279 -35.404713
rfingers 7.837522
rthumb -3.494931 -68.356422
lclavicle -0.000000 -0.000000
lhumerus -45.416691 -10.590218 98.912987
lradius 31.819700
lwrist 7.246481
lhand -9.231233 -24.151051
lfingers 7.837522
lthumb 19.284761 8.001368
rfemur 11.769010 7.180580 34.907513
rtibia 5.742396
rfoot -17.441160 -1.194314
rtoes -8.793896
lfemur -45.146534 -1.908720 -5.578749
ltibia 20.507851
lfoot -17.909761 19.008881
ltoes -14.537491
23
root 7.682210 15.855200 -33.768501 9.098810 -7.871900 -7.615500
lowerback -9.286596 2.536919 4.857039
upperback -1.723084 2.822039 3.184412
thorax 3.482633 1.434334 0.886657
lowerneck -22.141350 -5.219555 -12.315160
upperneck 17.671940 -7.059096 16.656860
head 10.196296 -2.346685 6.881908
rclavicle -0.000000 0.000000
rhumerus -46.370060 21.233521 -100.216934
rradius 68.925011
rwrist -37.622643
rhand -33.041470 -32.297321
rfingers 7.837522
rthumb -3.689224 -65.246063
lclavicle -0.000000 0.000000
lhumerus -45.449581 -10.887019 98.971291
lradius 31.440752
lwrist 7.097651
lhand -9.410918 -24.643629
lfingers 7.837522
lthumb 19.111839 7.524176
rfemur 12.336280 10.000254 35.740871
rtibia 2.033130
rfoot -15.001910 -1.839398
rtoes -11.759109
lfemur -46.151604 0.670074 -4.040674
ltibia 20.555372
lfoot -17.509359 19.853241
ltoes -14.564220
